<svg xmlns="http://www.w3.org/2000/svg" viewBox="0 0 172.62 28.02"><defs><style>.cls-1{fill-rule:evenodd;}.cls-2{fill:#e74b18;}</style></defs><title>Risorsa 1</title><g id="Livello_2" data-name="Livello 2"><g id="Layer_1" data-name="Layer 1"><path d="M24.07.11H19.75c-1.1,0-1.38.32-1.71,1.3l-5.5,16.86L7,1.41C6.68.43,6.39.11,5.33.11H.81C0,.11-.12.76.08,1.29l8.76,24.4c.49,1.06.77,1.22,1.67,1.22h3.91c.89,0,1.18-.16,1.67-1.22L24.8,1.29c.21-.53,0-1.18-.73-1.18"/><path d="M63.41,26.11l-5.74-8.37a8.79,8.79,0,0,0,5.66-8.12A8.86,8.86,0,0,0,61,3.22C59.26,1.51,57.3.61,52.86.61H42.6c-.94,0-1.14.45-1.14,1.18V26.23c0,.94.41,1.18,1.14,1.18h4c.74,0,1.18-.24,1.18-1.18V6.31h5.42A3.47,3.47,0,0,1,57,9.78c0,1.92-1.88,3.31-3.87,3.31h-.82c-.93,0-1.18.45-1.18,1.18v3.27a3,3,0,0,0,.45,2.08L56,26.19a2.18,2.18,0,0,0,2,1.22h4.8c.78,0,1-.73.61-1.3"/><path d="M89.88,12.46H81c-.93,0-1.18.45-1.18,1.18v3.18C79.78,17.56,80,18,81,18h3.67c0,3.14-1.87,4.36-4.52,4.36s-4.48-1.51-4.48-4.11V10.06a4.21,4.21,0,0,1,4.48-4.4c2.73,0,4.19,1.22,4.64,2.49.21.57,0,1.38,1.18,1.38h3.95c.94,0,1.18-.16,1.18-1.14,0-5.46-5.86-8.39-11-8.39-4.81,0-11,2.73-11,9.16v10c0,6.4,6.15,8.84,11,8.84,4.64,0,10.59-2.6,11-8.47V13.64c0-.73-.24-1.18-1.18-1.18"/><path d="M130.73,21.71H119V1.79c0-.93-.45-1.18-1.18-1.18h-4c-.73,0-1.18.25-1.18,1.18V26.23c0,.74.25,1.18,1.18,1.18h16.95c.94,0,1.18-.44,1.18-1.18V22.89c0-.73-.24-1.18-1.18-1.18"/><path class="cls-1" d="M172.62,9.21c0-6.44-6.11-9.21-11-9.21s-10.88,2.77-10.88,9.21v9.61c0,6.43,6,9.2,10.88,9.2s11-2.77,11-9.2Zm-6.39,9c0,2.61-1.88,4.11-4.56,4.11s-4.53-1.5-4.53-4.11V9.78c0-2.61,1.88-4.12,4.53-4.12s4.56,1.51,4.56,4.12Z"/><path d="M105,26.23V1.82c0-.94-.45-1.18-1.18-1.18H100c-.74,0-1.18.24-1.18,1.18V26.23c0,.94.44,1.19,1.18,1.19h3.78c.73,0,1.18-.25,1.18-1.19"/><path d="M143.84,26.23V1.82c0-.94-.44-1.18-1.18-1.18h-3.78c-.73,0-1.18.24-1.18,1.18V26.23c0,.94.45,1.19,1.18,1.19h3.78c.74,0,1.18-.25,1.18-1.19"/><path class="cls-2" d="M34.55,13.91V8.54c0-.93-.44-1.18-1.18-1.18H29c-.74,0-1.19.25-1.19,1.18v5.37c0,.94.45,1.18,1.19,1.18h4.34c.74,0,1.18-.24,1.18-1.18"/><path d="M34.55,25.69V20.32c0-.94-.44-1.18-1.18-1.18H29c-.74,0-1.19.24-1.19,1.18v5.37c0,.93.45,1.18,1.19,1.18h4.34c.74,0,1.18-.25,1.18-1.18"/></g></g></svg>